# xmcd
#
# Track frame offsets:
# 150
# 13112
# 25232
# 36127
# 48912
# 63610
# 76275
# 86247
# 97757
# 110030
# 121605
# 133025
# 146110
# 158622
# 171400
# 183315
# 194850
# 208087
# 222002
# 234192
#
# Disc length: 3289 seconds
#
#
# Revision: 0
# Processed by: cddbd v1.5PL3 Copyright (c) Steve Scherf et al.
# Submitted via: FreeRIP 2.70 
#
DISCID=180cd714
DTITLE=Luiz Gonzaga - 50 Anos de Chao CD1
DYEAR=1996
DGENRE=Forro
TTITLE0=Vira e Mexe
TTITLE1=Danca, Mariquinha
TTITLE2=No Meu Pe de Serra
TTITLE3=Asa Branca
TTITLE4=Vem, Morena
TTITLE5=Baiao
TTITLE6=Forro de Mane Vito
TTITLE7=Juazeiro
TTITLE8=Legua Tirana
TTITLE9=Boiadeiro
TTITLE10=Cintura Fina
TTITLE11=No Ceara Nao Tem Disso Nao
TTITLE12=A Volta da Asa Branca
TTITLE13=Qui Nem Jilo
TTITLE14=Assum Preto
TTITLE15=Respeita Januario
TTITLE16=Paraiba
TTITLE17=A Danca da Moda
TTITLE18=Estrada de Caninde
TTITLE19=Xandusinha
EXTD=Box de Luiz Gonzaga
EXTT0=
EXTT1=
EXTT2=
EXTT3=
EXTT4=
EXTT5=
EXTT6=
EXTT7=
EXTT8=
EXTT9=
EXTT10=
EXTT11=
EXTT12=
EXTT13=
EXTT14=
EXTT15=
EXTT16=
EXTT17=
EXTT18=
EXTT19=
PLAYORDER=
